P1
# Cloud - non-standard p1!
16 8
0000000000000000
0000001111001000
0000001001000000
0000010000100000
0000010000100000
0000001001000000
0000001111001000
0000000000000000
